<svg aria-hidden="true" viewBox="0 0 454.6 454.6" xmlns="http://www.w3.org/2000/svg"><path d="m320.9 343.8c-20.33-4.535-49.39-6.836-86.97-6.836-37.59 0-66.63 2.301-86.98 6.824l-61.29-73.73c-11.51-13.6-17.84-30.92-17.84-48.75 0-16.7 5.355-32.53 15.49-45.83 23.8-31.13 64.88-42.25 95.7-25.79l25.84 12.5c0.4727 0.2188 0.9805 0.3398 1.512 0.3398 1.668 0 3.098-1.23 3.344-2.891l5.379-35.04c0.1484-0.957-0.1406-1.969-0.7812-2.715-0.6484-0.75-1.59-1.191-2.566-1.191h-30.25v-37.62h30.25c1.867 0 3.395-1.508 3.395-3.395v-30.23h37.62v30.23c0 1.887 1.508 3.395 3.398 3.395h30.22v37.62h-30.22c-1 0-1.938 0.4414-2.59 1.191-0.6367 0.7461-0.9258 1.758-0.7773 2.715l5.375 35.04c0.1484 1.07 0.8086 2 1.77 2.5 0.9688 0.5078 2.086 0.5195 3.078 0.05078l25.95-12.56c30.68-16.41 71.79-5.289 95.57 25.84 21.67 28.41 20.7 67.29-2.375 94.59zm24.34 17.04c9.48 8.121 14.91 20.77 14.91 34.72v16.38h-252.5v-16.38c0-13.95 5.414-26.6 14.91-34.72 9.07-7.785 35.76-17.07 111.3-17.07 75.54 0 102.2 9.281 111.3 17.07zm44.67-189.5c-25.79-33.78-70.58-45.69-104.1-27.79l-21.69 10.49-4.066-26.57h29.66c1.887 0 3.395-1.52 3.395-3.406v-44.41c0-1.871-1.508-3.398-3.395-3.398h-30.22v-30.24c0-1.871-1.531-3.398-3.398-3.398h-44.41c-1.891 0-3.398 1.527-3.398 3.398v30.24h-30.26c-1.879 0-3.398 1.527-3.398 3.398v44.41c0 1.887 1.52 3.406 3.398 3.406h29.68l-4.066 26.58-21.58-10.43c-33.61-17.96-78.39-6.055-104.2 27.73-11.07 14.46-16.89 31.73-16.89 49.94 0 19.44 6.906 38.3 19.42 53.11l59.16 71.21c-9.641 2.711-16.8 6.055-21.44 10.03-10.99 9.414-17.29 23.95-17.29 39.89v19.77c0 1.867 1.52 3.395 3.398 3.395h259.3c1.887 0 3.395-1.527 3.395-3.395v-19.77c0-15.94-6.281-30.47-17.26-39.89-4.656-3.977-11.83-7.32-21.49-10.05l59.16-71.18c25.14-29.73 26.21-72.12 2.57-103.1" fill="#2a2a2a"/><path d="m360.1 395.6v16.38h-252.5v-16.38c0-13.95 5.414-26.6 14.91-34.72 9.07-7.785 35.76-17.07 111.3-17.07 75.54 0 102.2 9.281 111.3 17.07 9.48 8.121 14.91 20.77 14.91 34.72" fill="#f8f8f8"/><path d="m341.9 236.1c-0.03125 0.05078-0.08203 0.1016-0.1211 0.1523l-50.16 52.88c-0.07812 0.1016-0.1914 0.1797-0.2891 0.2695-0.6094 0.5078-1.391 0.7773-2.168 0.7773-0.1211 0-0.2422 0-0.3516-0.01953-5.805-0.5664-11.81-1.027-17.82-1.355-1.797-0.1016-3.227-1.602-3.227-3.398v-55.73c0-7.223 3.887-13.98 10.13-17.62l31.06-18.13c0.07031-0.03125 0.1172-0.07031 0.168-0.09766 6.273-3.199 12.5-3.688 18.07-2.449 2.578 0.5586 5.027 1.508 7.273 2.738 3.129 1.676 5.867 3.906 8.023 6.422 9.672 11.18 6.914 26.67-0.5977 35.56zm-141.9 49.31c0 1.797-1.43 3.297-3.227 3.398-3.051 0.168-6.066 0.3594-9.082 0.5781-2.961 0.2383-5.875 0.5-8.754 0.7773-0.1016 0.01953-0.2188 0.01953-0.3203 0.01953-0.9375 0-1.84-0.3672-2.477-1.047l-11-11.6-39.17-41.28c-0.02734-0.05078-0.07812-0.1016-0.1172-0.1523-7.516-8.891-10.26-24.38-0.5898-35.56 5.844-6.781 15.82-11.54 26.59-9.16 2.219 0.4883 4.496 1.289 6.773 2.449 0.05078 0.02734 0.1094 0.06641 0.1719 0.09766l28.11 16.41 2.957 1.727c6.234 3.637 10.13 10.39 10.13 17.62zm172.7-122.1c-0.3398-0.4375-0.6602-0.8672-1.02-1.297-13.55-11.57-29.95-18.38-46.3-19.68-12.64-0.9805-25.26 1.328-36.48 7.336l-19.61 9.48-6.332 3.078c-0.9922 0.4688-2.109 0.457-3.078-0.05078-0.9609-0.5-1.621-1.43-1.77-2.5l-1.859-12.12-3.516-22.92c-0.1484-0.957 0.1406-1.969 0.7773-2.715 0.6523-0.75 1.59-1.191 2.59-1.191h30.22v-37.62h-30.22c-1.891 0-3.398-1.508-3.398-3.395v-22.83h-30.81v23.78c0 4.695-3.797 8.5-8.5 8.5h-24.99v31.56h23.29c0.9766 0 1.918 0.4414 2.566 1.191 0.6406 0.7461 0.9297 1.758 0.7812 2.715l-5.285 34.53-0.09375 0.5078c-0.2461 1.66-1.676 2.891-3.344 2.891-0.5312 0-1.039-0.1211-1.512-0.3398l-25.84-12.5c-7.941-4.227-16.55-6.656-25.38-7.375-21.96 1.738-43.99 13.43-59.07 33.16-10.11 13.3-15.46 29.14-15.46 45.83 0 17.82 6.324 35.15 17.83 48.75l59.73 71.86c19.52-3.277 45.3-4.945 77.27-4.945 1.309 0 2.598 0 3.867 0.01953 0.2109 0.02344 0.3984 0.02344 0.5977 0 4.098 0.02344 8.074 0.07031 11.93 0.1406 0.04297 0 0.08984 0.01172 0.1211 0.01172 4.387 0.07031 8.633 0.2109 12.75 0.3594 14.54 0.5586 27.38 1.566 38.54 3.008l68.63-82.64c23.08-27.3 24.05-66.19 2.379-94.59" fill="#f8f8f8"/><path d="m156.6 341.9c-3.434 0.582-6.664 1.199-9.711 1.879l-10.4-12.52-50.89-61.21c-11.51-13.6-17.84-30.92-17.84-48.75 0-16.7 5.355-32.53 15.49-45.83 17.66-23.11 44.87-35.2 70.32-33.16-21.96 1.738-43.99 13.43-59.07 33.16-10.11 13.3-15.46 29.14-15.46 45.83 0 17.82 6.324 35.15 17.83 48.75l59.73 71.86" fill="#fff"/><path d="m382.1 270.1-61.24 73.73c-5.715-1.27-12.11-2.359-19.17-3.297l68.63-82.64c23.08-27.3 24.05-66.19 2.379-94.59-0.3398-0.4375-0.6602-0.8672-1.02-1.297 4.645 3.945 8.961 8.453 12.8 13.5 21.67 28.41 20.7 67.29-2.375 94.59" fill="#d4d4d4"/><path d="m193.2 282.2c-4.473 0.2891-8.93 0.6289-13.28 1.027l-48.94-51.58c-4.516-5.406-8.633-17.36-0.5781-26.67 4.938-5.715 14.45-10.47 25.04-5.137l31 18.09c4.148 2.438 6.754 6.934 6.754 11.75zm-3.336-70.14-31.07-18.13c-0.0625-0.03125-0.1211-0.07031-0.1719-0.09766-13.22-6.734-26.29-1.48-33.36 6.711-9.672 11.18-6.926 26.67 0.5898 35.56 0.03906 0.05078 0.08984 0.1016 0.1172 0.1523l50.17 52.88c0.6367 0.6797 1.539 1.047 2.477 1.047 0.1016 0 0.2188 0 0.3203-0.01953 5.816-0.5664 11.82-1.027 17.84-1.355 1.797-0.1016 3.227-1.602 3.227-3.398v-55.73c0-7.223-3.898-13.98-10.13-17.62" fill="#2a2a2a"/><path d="m336.8 231.6-48.94 51.58c-4.359-0.3984-8.805-0.7383-13.28-1.027v-52.52c0-4.816 2.598-9.312 6.754-11.75l31-18.09c10.58-5.336 20.1-0.5781 25.03 5.137 8.062 9.312 3.949 21.26-0.5664 26.67zm5.723-31.11c-7.074-8.191-20.12-13.45-33.37-6.711-0.05078 0.02734-0.09766 0.06641-0.168 0.09766l-31.06 18.13c-6.246 3.637-10.13 10.39-10.13 17.62v55.73c0 1.797 1.43 3.297 3.227 3.398 6.016 0.3281 12.02 0.7891 17.82 1.355 0.1094 0.01953 0.2305 0.01953 0.3516 0.01953 0.9102 0 1.816-0.3672 2.457-1.047l50.16-52.88c0.03906-0.05078 0.08984-0.1016 0.1211-0.1523 7.512-8.891 10.27-24.38 0.5977-35.56" fill="#2a2a2a"/><path d="m359.8 388.9c-2.605-5.902-6.512-11.09-11.53-15.09-9.312-7.445-36.71-16.32-114.3-16.32-77.54 0-104.9 8.871-114.2 16.32-5.039 4.004-8.945 9.191-11.54 15.09 1.43-11.26 6.527-21.23 14.47-28.04 9.07-7.781 35.76-17.06 111.3-17.06 75.56 0 102.2 9.281 111.3 17.06 7.922 6.805 13.02 16.78 14.46 28.04" fill="#fff"/><path d="m252.7 49.48v7.402h-30.81v23.78c0 4.695-3.797 8.5-8.5 8.5h-24.99v31.56h-6.965v-37.62h30.25c1.867 0 3.395-1.508 3.395-3.395v-30.23h37.62" fill="#fff"/><path d="m252.7 79.71v1.945c0 1.312 0.332 2.609 1.051 3.699 1.52 2.297 4.117 3.805 7.094 3.805h25.46v-6.055h-30.2c-1.891 0-3.398-1.508-3.398-3.395" fill="#fff"/></svg>